<svg id="Layer_1" data-name="Layer 1" xmlns="http://www.w3.org/2000/svg" viewBox="0 0 54.838 54.836"><defs><style>.cls-1{fill:#99abc9;}.cls-2{fill:#002c77;}</style></defs><title>SVG LAS BAMBAS</title><path class="cls-1" d="M27.419,0A27.418,27.418,0,1,0,54.838,27.417,27.419,27.419,0,0,0,27.419,0Z"/><path class="cls-2" d="M27.419,0A27.418,27.418,0,1,0,54.838,27.417,27.419,27.419,0,0,0,27.419,0Zm0,52.214a24.8,24.8,0,1,1,24.8-24.8,24.8,24.8,0,0,1-24.8,24.8ZM39.834,25.957,21.7,15.861a1.6,1.6,0,0,0-2.62,1.445V37.543a1.6,1.6,0,0,0,2.62,1.444l18.1-9.948a1.672,1.672,0,0,0,.03-3.082Zm-1.327.2"/></svg>