<svg id="Layer_1" data-name="Layer 1" xmlns="http://www.w3.org/2000/svg" viewBox="0 0 54.838 54.836"><defs><style>.cls-1{fill:#ec9ab1;}.cls-2{fill:#d0023c;}</style></defs><title>SVG LAS BAMBAS</title><path class="cls-1" d="M27.419,0A27.418,27.418,0,1,0,54.838,27.417,27.419,27.419,0,0,0,27.419,0Z"/><path class="cls-2" d="M27.419,0A27.418,27.418,0,1,0,54.838,27.417,27.419,27.419,0,0,0,27.419,0Zm0,52.214a24.8,24.8,0,1,1,24.8-24.8,24.8,24.8,0,0,1-24.8,24.8Zm11.088-26.06M20.05,42.253A6.439,6.439,0,0,1,15.5,31.266l5.85-5.855a6.44,6.44,0,0,1,8.026-.869,6.259,6.259,0,0,1,1.081.869,1.822,1.822,0,0,1,0,2.585,1.886,1.886,0,0,1-2.585,0,2.759,2.759,0,0,0-3.9,0L18.1,33.864a2.761,2.761,0,1,0,3.9,3.9h0l3.472-3.477a.46.46,0,0,1,.5-.1,7.74,7.74,0,0,0,2.943.57H29.1a.46.46,0,0,1,.327.786L24.6,40.377A6.4,6.4,0,0,1,20.05,42.253Zm8.895-8.872H28.6a6.407,6.407,0,0,1-.685-.064c-.189-.032-.373-.069-.556-.115l-.271-.074c-.1-.028-.2-.06-.294-.1s-.2-.069-.294-.11-.193-.078-.29-.124a6.384,6.384,0,0,1-1.84-1.288,1.834,1.834,0,0,1,0-2.594,1.886,1.886,0,0,1,2.585,0,2.759,2.759,0,0,0,3.9,0l1.509-1.5.037-.041,4.314-4.309a2.761,2.761,0,0,0-3.9-3.9l-3.463,3.459a.46.46,0,0,1-.5.1,7.727,7.727,0,0,0-2.939-.575h-.17a.462.462,0,0,1-.336-.786l4.825-4.82a6.439,6.439,0,0,1,9.106,9.106L33.471,31.5a6.439,6.439,0,0,1-2.985,1.692h-.051l-.267.055-.147.028-.317.046h-.156c-.12,0-.225.023-.327.028Z"/></svg>