<?xml version="1.0" encoding="utf-8"?>
<!-- Generator: Adobe Illustrator 21.1.0, SVG Export Plug-In . SVG Version: 6.00 Build 0)  -->
<svg version="1.1" id="Layer_1" xmlns="http://www.w3.org/2000/svg" xmlns:xlink="http://www.w3.org/1999/xlink" x="0px" y="0px"
	 viewBox="0 0 54.8 54.8" style="enable-background:new 0 0 54.8 54.8;" xml:space="preserve">
<style type="text/css">
	.st0{fill:#D0023C;}
	.st1{fill:#E8412B;}
	.st2{fill:#002C77;}
	.st3{fill:#AEA400;}
	.st4{fill:none;stroke:#5F6162;stroke-width:0.8388;stroke-miterlimit:10;}
	.st5{opacity:0.4;fill:#99082B;}
	.st6{fill:#99082B;}
	.st7{fill:#B61933;}
	.st8{fill:none;stroke:#FFFFFF;stroke-width:2.2603;stroke-miterlimit:10;}
	.st9{fill:#FFFFFF;}
	.st10{fill:#EC9AB1;}
	.st11{fill:#99ABC9;}
	.st12{opacity:0.4;fill:#002C77;}
	.st13{opacity:0.4;fill:#E8412B;}
	.st14{fill:#F6B3AA;}
	.st15{fill:none;stroke:#FFFFFF;stroke-width:0.808;stroke-miterlimit:10;}
	.st16{opacity:0.4;fill:#AEA400;}
	.st17{fill:#E3678A;}
	.st18{opacity:0.4;fill:#D0023C;}
	.st19{fill:none;stroke:#D0023C;stroke-width:3;stroke-miterlimit:10;}
</style>
<g>
	<path class="st14" d="M27.4,0C12.3,0,0,12.3,0,27.4c0,15.1,12.3,27.4,27.4,27.4c15.1,0,27.4-12.3,27.4-27.4
		C54.8,12.3,42.6,0,27.4,0L27.4,0z"/>
	<g>
		<path class="st1" d="M27.4,0C12.3,0,0,12.3,0,27.4c0,15.1,12.3,27.4,27.4,27.4c15.1,0,27.4-12.3,27.4-27.4
			C54.8,12.3,42.6,0,27.4,0L27.4,0z M27.4,52.2c-13.7,0-24.8-11.1-24.8-24.8c0-13.7,11.1-24.8,24.8-24.8s24.8,11.1,24.8,24.8
			C52.2,41.1,41.1,52.2,27.4,52.2L27.4,52.2z M39.8,26L21.7,15.9c-1.3-0.8-2.6-0.2-2.6,1.4v20.2c0,1.6,1.3,2.3,2.6,1.4L39.8,29
			C41.5,28.1,40.9,26.5,39.8,26L39.8,26z M38.5,26.2"/>
	</g>
</g>
</svg>
