<svg id="Layer_1" data-name="Layer 1" xmlns="http://www.w3.org/2000/svg" viewBox="0 0 51.248 51.246"><defs><style>.cls-1{fill:#b61933;}.cls-2{fill:none;stroke:#fff;stroke-miterlimit:10;stroke-width:2.26px;}.cls-3{fill:#fff;}</style></defs><title>SVG LAS BAMBAS</title><path class="cls-1" d="M50.117,25.622A24.494,24.494,0,1,1,25.624,1.13,24.521,24.521,0,0,1,50.117,25.622Z"/><path class="cls-2" d="M50.117,25.622A24.494,24.494,0,1,1,25.624,1.13,24.521,24.521,0,0,1,50.117,25.622Z"/><path class="cls-3" d="M26.281,16.774l6.8,6.8H13.22a2.048,2.048,0,1,0,0,4.1H33.078l-6.8,6.8a2.048,2.048,0,0,0,2.9,2.9L39.457,27.085a2.05,2.05,0,0,0,.462-.687l.008-.023a2.077,2.077,0,0,0,.146-.751h0v0a2.133,2.133,0,0,0-.143-.737c-.005-.014-.008-.027-.014-.041a2.058,2.058,0,0,0-.434-.654l-.008-.014-10.3-10.3a2.049,2.049,0,1,0-2.9,2.9Z"/></svg>