<svg id="Layer_1" data-name="Layer 1" xmlns="http://www.w3.org/2000/svg" viewBox="0 0 37.5 37.5"><defs><style>.cls-1,.cls-3{fill:#d0023c;}.cls-1{opacity:0.4;}.cls-2{fill:none;stroke:#d0023c;stroke-miterlimit:10;stroke-width:3px;}</style></defs><title>SVG LAS BAMBAS</title><path class="cls-1" d="M18.788,34.582A15.788,15.788,0,1,1,34.576,18.793,15.806,15.806,0,0,1,18.788,34.582Z"/><circle class="cls-2" cx="18.75" cy="18.75" r="17.25"/><path class="cls-3" d="M24.588,19.062l-4.343,4.343V10.724a1.308,1.308,0,1,0-2.615,0V23.4L13.288,19.06a1.307,1.307,0,0,0-1.849,1.849l6.566,6.565a1.309,1.309,0,0,0,.439.295l.015.005a1.326,1.326,0,0,0,.479.093h0a1.362,1.362,0,0,0,.471-.092l.026-.009a1.314,1.314,0,0,0,.418-.277l.009-.005,6.574-6.574a1.308,1.308,0,1,0-1.851-1.849Z"/></svg>