<svg id="Layer_1" data-name="Layer 1" xmlns="http://www.w3.org/2000/svg" viewBox="0 0 67.952 36.92"><defs><style>.cls-1{fill:#fff;}</style></defs><title>SVG LAS BAMBAS</title><path class="cls-1" d="M1.892,35.825a7.135,7.135,0,0,1-.8-.019,9.638,9.638,0,0,1,.354-1.393l2.941-9.7c.51-1.572,1.369-1.818,2.929-2.262V35.822h-5l-.423,0m13.18-14.193a6.1,6.1,0,0,0,2.155.431,6.112,6.112,0,0,0,2.166-.436,8.981,8.981,0,0,0,1.85-.96l1.185.36c-.61,1.472-2.8,2.568-5.275,2.568s-4.631-1.057-5.259-2.526l1.32-.4a9.035,9.035,0,0,0,1.859.962M10.023,14.6v-.005a.556.556,0,0,0-.047-.214,4.815,4.815,0,0,1-.09-.9l-.021-1.949,7.484,0,7.238,0-.021,1.955c0,2.687-2.6,6.013-5.556,7.116a4.506,4.506,0,0,1-3.559,0A9.3,9.3,0,0,1,10.023,14.6m-1.644-1.06a1.45,1.45,0,0,1-.478-.96v-.789a.254.254,0,0,1,.253-.254h.622L8.8,13.49c0,.124.005.248.014.373a2.014,2.014,0,0,1-.431-.325M13.675,2.5V4.184a1.879,1.879,0,0,0,1.878,1.878h3.227a1.88,1.88,0,0,0,1.878-1.878V2.514a7.464,7.464,0,0,1,3.855,5.26H9.8A7.467,7.467,0,0,1,13.675,2.5M15.553,1.09h3.227a.789.789,0,0,1,.788.788V4.184a.789.789,0,0,1-.788.788H15.553a.789.789,0,0,1-.789-.788V1.878a.79.79,0,0,1,.789-.788M26.611,12.576a1.45,1.45,0,0,1-.478.961,2.021,2.021,0,0,1-.491.357q.015-.2.015-.4l.021-1.96h.68a.257.257,0,0,1,.253.254ZM9.318,10.444H9.17a.363.363,0,0,1-.363-.363V9.227a.368.368,0,0,1,.363-.363H25.195a.367.367,0,0,1,.363.363v.855a.363.363,0,0,1-.363.363h-.056l-7.789,0Zm14.3,21.393a1.268,1.268,0,0,0-1.266-1.267H11.936a1.269,1.269,0,0,0-1.267,1.267v3.985H8.4V22.128l2.267-.687v5.98a1.268,1.268,0,0,0,1.266,1.265l4.135,0a.545.545,0,0,0,0-1.09l-4.135,0a.178.178,0,0,1-.177-.175V22.755a7.664,7.664,0,0,0,5.395,1.93,7.7,7.7,0,0,0,5.4-1.959v4.7a.175.175,0,0,1-.174.175H18.568a.545.545,0,1,0,0,1.089h3.813a1.266,1.266,0,0,0,1.265-1.265V21.4l2.36.716V35.822H23.619Zm-11.86,2.014,10.771.006v1.965H11.759ZM22.53,32.768l-10.771-.005v-.925a.179.179,0,0,1,.177-.177H22.353a.18.18,0,0,1,.177.177ZM34.064,34.1l-1.129-3.7a.545.545,0,1,0-1.042.319l1.129,3.7a9.554,9.554,0,0,1,.357,1.39,7.283,7.283,0,0,1-.814.02l-.416,0H27.1V22.432c1.457.424,2.51.818,2.985,2.28l.67,2.229a.545.545,0,0,0,.521.388.524.524,0,0,0,.157-.023.544.544,0,0,0,.365-.679l-.672-2.234,0-.011c-.689-2.13-2.328-2.6-4.064-3.1-.228-.065-.464-.133-.7-.2l-4.049-1.23a10.173,10.173,0,0,0,3.121-4.743,2.889,2.889,0,0,0,1.472-.8,2.513,2.513,0,0,0,.8-1.737v-.787a1.344,1.344,0,0,0-1.106-1.322,1.461,1.461,0,0,0,.053-.385V9.227A1.457,1.457,0,0,0,25.626,7.84,8.6,8.6,0,0,0,20.55,1.254,1.879,1.879,0,0,0,18.779,0H15.553a1.881,1.881,0,0,0-1.767,1.242,8.609,8.609,0,0,0-5.108,6.62,1.453,1.453,0,0,0-.96,1.365v.855a1.421,1.421,0,0,0,.062.417,1.346,1.346,0,0,0-.967,1.29v.789a2.51,2.51,0,0,0,.8,1.734,2.9,2.9,0,0,0,1.413.784,10.162,10.162,0,0,0,3.125,4.756L7.7,21.2h0l-.005,0c-.234.071-.459.136-.677.2-1.6.456-2.982.85-3.671,2.98l0,.009L.4,34.1c-.39,1.286-.562,1.925-.21,2.4.285.381.744.424,1.416.424l.295,0,.413,0h8.809a.535.535,0,0,0,.091.008.518.518,0,0,0,.09-.008H22.984a.535.535,0,0,0,.091.008.518.518,0,0,0,.09-.008H32.15l.407,0c.841.008,1.4.012,1.722-.425.352-.472.179-1.111-.215-2.392"/><path class="cls-1" d="M35.375,35.825a7.135,7.135,0,0,1-.8-.019,9.638,9.638,0,0,1,.354-1.393l2.941-9.7c.51-1.572,1.369-1.818,2.929-2.262V35.822h-5l-.423,0m13.18-14.193a5.6,5.6,0,0,0,4.32,0,8.981,8.981,0,0,0,1.85-.96l1.185.36c-.61,1.472-2.8,2.568-5.275,2.568S46,22.538,45.377,21.069l1.32-.4a9.035,9.035,0,0,0,1.859.962M43.506,14.6v-.005a.556.556,0,0,0-.047-.214,4.815,4.815,0,0,1-.09-.9l-.021-1.949,7.484,0,7.238,0-.021,1.955c0,2.687-2.6,6.013-5.556,7.116a4.506,4.506,0,0,1-3.559,0A9.3,9.3,0,0,1,43.506,14.6m-1.644-1.06a1.45,1.45,0,0,1-.478-.96v-.789a.254.254,0,0,1,.253-.254h.622l.021,1.955c0,.124.005.248.014.373a2.014,2.014,0,0,1-.431-.325M47.158,2.5V4.184a1.879,1.879,0,0,0,1.878,1.878h3.227A1.88,1.88,0,0,0,54.14,4.184V2.514a7.464,7.464,0,0,1,3.855,5.26H43.279A7.467,7.467,0,0,1,47.158,2.5M49.036,1.09h3.227a.789.789,0,0,1,.788.788V4.184a.789.789,0,0,1-.788.788H49.036a.789.789,0,0,1-.789-.788V1.878a.79.79,0,0,1,.789-.788M60.093,12.576a1.45,1.45,0,0,1-.478.961,2.021,2.021,0,0,1-.491.357q.015-.2.015-.4l.021-1.96h.68a.257.257,0,0,1,.253.254ZM42.8,10.444h-.148a.363.363,0,0,1-.363-.363V9.227a.368.368,0,0,1,.363-.363H58.678a.367.367,0,0,1,.363.363v.855a.363.363,0,0,1-.363.363h-.056l-7.789,0ZM57.1,31.837a1.268,1.268,0,0,0-1.266-1.267H45.419a1.269,1.269,0,0,0-1.267,1.267v3.985H41.885V22.128l2.267-.687v5.98a1.268,1.268,0,0,0,1.266,1.265l4.135,0a.545.545,0,0,0,0-1.09l-4.135,0a.178.178,0,0,1-.177-.175V22.755a7.664,7.664,0,0,0,5.395,1.93,7.7,7.7,0,0,0,5.4-1.959v4.7a.175.175,0,0,1-.174.175H52.051a.545.545,0,0,0,0,1.089h3.813a1.266,1.266,0,0,0,1.265-1.265V21.4l2.36.716V35.822H57.1Zm-11.86,2.014,10.771.006v1.965H45.242Zm10.771-1.084-10.771-.005v-.925a.179.179,0,0,1,.177-.177H55.836a.18.18,0,0,1,.177.177ZM67.547,34.1l-1.129-3.7a.545.545,0,1,0-1.042.319l1.129,3.7a9.554,9.554,0,0,1,.357,1.39,7.283,7.283,0,0,1-.814.02l-.416,0H60.578V22.432c1.457.424,2.51.818,2.985,2.28l.67,2.229a.545.545,0,0,0,.521.388.524.524,0,0,0,.157-.023.544.544,0,0,0,.365-.679l-.672-2.234,0-.011c-.689-2.13-2.328-2.6-4.064-3.1-.228-.065-.464-.133-.7-.2l-4.049-1.23a10.173,10.173,0,0,0,3.121-4.743,2.889,2.889,0,0,0,1.472-.8,2.513,2.513,0,0,0,.8-1.737v-.787a1.344,1.344,0,0,0-1.106-1.322,1.461,1.461,0,0,0,.053-.385V9.227A1.457,1.457,0,0,0,59.109,7.84a8.6,8.6,0,0,0-5.076-6.585A1.879,1.879,0,0,0,52.262,0H49.036a1.881,1.881,0,0,0-1.767,1.242,8.609,8.609,0,0,0-5.108,6.62,1.453,1.453,0,0,0-.96,1.365v.855a1.421,1.421,0,0,0,.062.417,1.346,1.346,0,0,0-.967,1.29v.789a2.51,2.51,0,0,0,.8,1.734,2.9,2.9,0,0,0,1.413.784,10.162,10.162,0,0,0,3.125,4.756L41.182,21.2h0l-.005,0c-.234.071-.459.136-.677.2-1.6.456-2.982.85-3.671,2.98l0,.009L33.884,34.1c-.39,1.286-.562,1.925-.21,2.4.285.381.744.424,1.416.424l.295,0,.413,0h8.809a.535.535,0,0,0,.091.008.518.518,0,0,0,.09-.008H56.466a.535.535,0,0,0,.091.008.518.518,0,0,0,.09-.008h8.985l.407,0c.841.008,1.4.012,1.722-.425.352-.472.179-1.111-.215-2.392"/></svg>