<svg id="Layer_1" data-name="Layer 1" xmlns="http://www.w3.org/2000/svg" viewBox="0 0 56.455 56.221"><defs><style>.cls-1{fill:#fff;}</style></defs><title>SVG LAS BAMBAS</title><path class="cls-1" d="M1.985,29.338c.033,0,.169.007.406.007A39.439,39.439,0,0,0,16.17,26.313a61.32,61.32,0,0,0,14.284-8.057A84.364,84.364,0,0,0,45.478,3.561l.4,2.868a1,1,0,0,0,.992.868c.047,0,.095-.006.141-.01a1.007,1.007,0,0,0,.855-1.136L47.13.865A1,1,0,0,0,45.983.012L40.159.9a1,1,0,1,0,.3,1.986l3.394-.52A82.54,82.54,0,0,1,29.327,16.59a59.462,59.462,0,0,1-13.768,7.8C7.582,27.539,2.134,27.332,2.082,27.329a1.006,1.006,0,0,0-.1,2.009"/><path class="cls-1" d="M1.985,29.338c.033,0,.169.007.406.007A39.439,39.439,0,0,0,16.17,26.313a61.32,61.32,0,0,0,14.284-8.057A84.364,84.364,0,0,0,45.478,3.561l.4,2.868a1,1,0,0,0,.992.868c.047,0,.095-.006.141-.01a1.007,1.007,0,0,0,.855-1.136L47.13.865A1,1,0,0,0,45.983.012L40.159.9a1,1,0,1,0,.3,1.986l3.394-.52A82.54,82.54,0,0,1,29.327,16.59a59.462,59.462,0,0,1-13.768,7.8C7.582,27.539,2.134,27.332,2.082,27.329a1.006,1.006,0,0,0-.1,2.009"/><path class="cls-1" d="M43.824,50.545c-2.185-.035-3.668-1.216-3.668-2.08,0-.425.371-1,.812-1,.581,0,1.057,1.233,2.856,1.376V44.692c-1.588-.564-3.35-1.2-3.35-3.457,0-2.22,1.675-3.1,3.35-3.28v-.511a.466.466,0,0,1,.511-.406c.264,0,.529.195.529.406v.476c1.2.035,2.893.407,2.893,1.272,0,.334-.247,1-.778,1-.421,0-.88-.566-2.115-.653v3.578c1.535.566,3.21,1.341,3.21,3.738a3.417,3.417,0,0,1-3.21,3.633v.6c0,.211-.265.406-.529.406a.466.466,0,0,1-.511-.406Zm.107-7.757v-3.21c-.989.125-1.7.566-1.7,1.483,0,1,.758,1.373,1.7,1.727m.827,2.293V48.8a1.681,1.681,0,0,0,1.553-1.747,2.059,2.059,0,0,0-1.553-1.974"/><path class="cls-1" d="M29.355,54.2H20.932V29.64a.237.237,0,0,1,.235-.237h7.952a.239.239,0,0,1,.237.237Zm-18.919,0H2.013v-16.3a.237.237,0,0,1,.237-.237H10.2a.237.237,0,0,1,.237.237ZM39.85,20.521a.234.234,0,0,1,.235-.233h7.952a.236.236,0,0,1,.237.233v12.1a12.081,12.081,0,0,0-8.423.247ZM55.444,44.169a.993.993,0,0,0-1,.888,10.1,10.1,0,0,1-5.577,8.1.111.111,0,0,0-.034.015,10.254,10.254,0,0,1-3.253.954l-.055.007c-.077.01-.154.018-.231.022-.118.013-.237.021-.355.028l-.112,0c-.145.006-.289.01-.436.01s-.292,0-.435-.01l-.138-.007c-.11,0-.219-.015-.329-.026-.09-.007-.18-.016-.27-.027l-.191-.022c-.092-.013-.184-.028-.274-.043l-.037,0a10.106,10.106,0,0,1-3.374-1.211s-.013,0-.017-.009a10.152,10.152,0,0,1-2.079-1.6A10.107,10.107,0,0,1,39.67,35.164l.071-.037a10.163,10.163,0,0,1,8.421-.408.359.359,0,0,0,.062.025c.125.053.25.107.371.162.05.022.1.046.147.07A10.042,10.042,0,0,1,53.1,38.966a1.009,1.009,0,1,0,1.737-1.026,12.254,12.254,0,0,0-1.873-2.41,12,12,0,0,0-2.682-2.021V20.521a2.245,2.245,0,0,0-2.245-2.245H40.085a2.245,2.245,0,0,0-2.245,2.246V33.911a12.122,12.122,0,0,0-.13,20.29H31.363V29.64a2.245,2.245,0,0,0-2.245-2.246H21.166a2.245,2.245,0,0,0-2.245,2.246V54.2H12.444v-16.3A2.245,2.245,0,0,0,10.2,35.66H2.25A2.248,2.248,0,0,0,0,37.908V54.2a1.913,1.913,0,0,0,1.936,2.011l44.182.009c2.41,0,4.964-2.021,4.964-2.021a12.167,12.167,0,0,0,1.88-1.538A12.028,12.028,0,0,0,56.45,45.3a1.02,1.02,0,0,0-1.006-1.132"/></svg>