<svg id="Layer_1" data-name="Layer 1" xmlns="http://www.w3.org/2000/svg" viewBox="0 0 51.814 45.107"><defs><style>.cls-1{fill:#fff;}</style></defs><title>SVG LAS BAMBAS</title><path class="cls-1" d="M50.3,41.342a2.248,2.248,0,0,1-2.245,2.246h-1.87V8.571h1.87A2.247,2.247,0,0,1,50.3,10.816Zm-48.777,0V10.816A2.247,2.247,0,0,1,3.763,8.571H5.634V43.588H3.763a2.248,2.248,0,0,1-2.245-2.246M5.573,5.916A.314.314,0,0,1,5.887,5.6h4.87a.314.314,0,0,1,.314.314V7.053h-5.5ZM16.9,4.271a2.757,2.757,0,0,1,2.754-2.754H32.164a2.756,2.756,0,0,1,2.753,2.754V7.053H33.4V4.271A1.233,1.233,0,0,0,32.164,3.04H19.651A1.233,1.233,0,0,0,18.42,4.271V7.053H16.9Zm25.425,4.3h2.34V43.59h-2.34ZM31.877,7.053H19.938V4.558H31.877ZM11.01,8.571H40.8V43.59H11.01ZM9.492,43.588H7.152V8.57h2.34ZM40.743,5.916a.314.314,0,0,1,.314-.314h4.87a.314.314,0,0,1,.314.314V7.053h-5.5Zm7.307,1.137H47.76V5.916a1.834,1.834,0,0,0-1.832-1.832h-4.87a1.834,1.834,0,0,0-1.831,1.832V7.053h-2.79V4.271A4.277,4.277,0,0,0,32.164,0H19.651a4.277,4.277,0,0,0-4.273,4.271V7.053h-2.79V5.916a1.833,1.833,0,0,0-1.831-1.832H5.887A1.834,1.834,0,0,0,4.055,5.916V7.053H3.763A3.769,3.769,0,0,0,0,10.816V41.342a3.769,3.769,0,0,0,3.763,3.765H48.051a3.768,3.768,0,0,0,3.763-3.765V10.816a3.768,3.768,0,0,0-3.763-3.763"/><path class="cls-1" d="M35.564,19.2a.759.759,0,0,0-1.236.882A10.341,10.341,0,0,1,19.908,34.5a.759.759,0,0,0-.882,1.234A11.858,11.858,0,0,0,35.564,19.2"/><path class="cls-1" d="M25.907,15.74A10.259,10.259,0,0,1,32,17.725a.759.759,0,0,0,.9-1.226A11.859,11.859,0,0,0,16.28,33a.758.758,0,1,0,1.231-.887,10.341,10.341,0,0,1,8.4-16.376"/><path class="cls-1" d="M20.459,27.109V25.049h3.136a1.284,1.284,0,0,0,1.282-1.282V20.632h2.061v3.135a1.285,1.285,0,0,0,1.283,1.282h3.135v2.061H28.221a1.285,1.285,0,0,0-1.283,1.283v3.135H24.877V28.393a1.285,1.285,0,0,0-1.282-1.283Zm4.183,5.937h2.532a1.284,1.284,0,0,0,1.282-1.282V28.628h3.136a1.284,1.284,0,0,0,1.282-1.282V24.813a1.284,1.284,0,0,0-1.282-1.282H28.456V20.4a1.284,1.284,0,0,0-1.282-1.282H24.641A1.284,1.284,0,0,0,23.359,20.4v3.136H20.223a1.284,1.284,0,0,0-1.282,1.282v2.532a1.284,1.284,0,0,0,1.282,1.282h3.136v3.136a1.284,1.284,0,0,0,1.282,1.282"/></svg>