<svg id="Layer_1" data-name="Layer 1" xmlns="http://www.w3.org/2000/svg" viewBox="0 0 70.296 44.283"><defs><style>.cls-1{fill:#fff;}</style></defs><title>SVG LAS BAMBAS</title><path class="cls-1" d="M47.958,35.515A11.066,11.066,0,1,1,59.013,24.451,11.074,11.074,0,0,1,47.958,35.515m0-24.231A13.165,13.165,0,1,0,61.112,24.451,13.177,13.177,0,0,0,47.958,11.284"/><path class="cls-1" d="M47.958,30A3.829,3.829,0,0,1,44.026,26.3a3.487,3.487,0,0,1,.435-1.694l2.147-3.69,1.06-1.741c.133-.189.262-.274.333-.274a.33.33,0,0,1,.215.149c.544.915.688,1.163.761,1.286s.078.131.349.579L51.453,24.6a3.529,3.529,0,0,1,.434,1.7A3.827,3.827,0,0,1,47.958,30m5.32-6.443-2.14-3.709-.013-.022c-.262-.43-.262-.43-.334-.554s-.224-.385-.8-1.345c-.013-.023-.028-.044-.043-.066A2.386,2.386,0,0,0,48,16.8a2.516,2.516,0,0,0-2.083,1.213l-.028.043L44.809,19.83a.1.1,0,0,1-.011.018L42.64,23.558l-.012.02a5.633,5.633,0,0,0-.7,2.719,6.034,6.034,0,0,0,12.06,0,5.676,5.676,0,0,0-.7-2.714l-.012-.022"/><path class="cls-1" d="M8.293,42.086a6.2,6.2,0,0,1-6.193-6.2V13.466a6.2,6.2,0,0,1,6.192-6.2h3.9V42.086Zm6-7.13h12.65v7.13H14.29Zm0-9.23h12.65v7.13H14.29Zm0-9.229h12.65v7.13H14.29Zm0-9.228,12.65,0V14.4H14.29Zm14.75,0,13.85,0h0a1.049,1.049,0,0,0,0-2.1l-7.613,0V2.1H55.263v3.07H47.639a1.05,1.05,0,0,0,0,2.1H62a6.2,6.2,0,0,1,6.193,6.2V35.887A6.2,6.2,0,0,1,62,42.086H29.039ZM11.71,44.185H58.581v.1h2.1v-.1H62a8.3,8.3,0,0,0,8.293-8.3V13.466A8.306,8.306,0,0,0,62,5.168h-4.64V1.735A1.738,1.738,0,0,0,55.625,0H34.916a1.738,1.738,0,0,0-1.738,1.735v3.44l-5.1,0c-.029,0-.059,0-.089,0H8.293A8.306,8.306,0,0,0,0,13.466V35.888a8.3,8.3,0,0,0,8.293,8.3H9.611v.1h2.1Z"/></svg>