<svg id="Layer_1" data-name="Layer 1" xmlns="http://www.w3.org/2000/svg" viewBox="0 0 67.751 53.205"><defs><style>.cls-1{fill:#fff;}</style></defs><title>SVG LAS BAMBAS</title><path class="cls-1" d="M21.363,28.072c-.3,0-.584.28-1.058.583a4.147,4.147,0,0,1-2.225.6c-2.461,0-3.542-1.532-3.542-5.031V21.722c0-3.326,1.145-5.054,3.65-5.054a3.712,3.712,0,0,1,1.966.475c.6.346.778.648,1.123.648a.832.832,0,0,0,.886-.863,1.564,1.564,0,0,0-.67-1.037,5.471,5.471,0,0,0-3.3-.992c-4.06,0-5.593,2.915-5.593,6.781v2.57c0,4.039,1.469,6.783,5.485,6.783a5.778,5.778,0,0,0,3.413-1.059,1.549,1.549,0,0,0,.692-1.079.807.807,0,0,0-.821-.821"/><path class="cls-1" d="M27.432,30.966a4.343,4.343,0,0,0,3.326-1.252,1.88,1.88,0,0,0,.541.8,1.925,1.925,0,0,0,1.144.453c.519,0,.951-.258.951-.821A.757.757,0,0,0,33,29.5c-.432-.216-.67-.453-.67-1.339V20.751a.958.958,0,0,0-.95-.95.945.945,0,0,0-.95.95v6.976a2.761,2.761,0,0,1-2.614,1.446c-1.662,0-2.051-.907-2.051-2.332V20.751a.94.94,0,1,0-1.879,0v6.284c0,2.224.863,3.931,3.542,3.931"/><path class="cls-1" d="M39.157,51.7V47.547h7.3l2.279-3.086a.753.753,0,0,0-1.211-.9L45.7,46.042H37.652V51.7H22.436V48.258c.571.041,1.146.069,1.728.069a24.2,24.2,0,0,0,22.9-16.477.639.639,0,0,0,.062-.034l6.045-5.143h4.948l1.561-4.683h6.508V31l-3.017.635-3.84,3.494-4.665-.98-3.509,4.331a.752.752,0,0,0,1.168.948l2.93-3.617,4.52.949,4.1-3.736,2.308-.486V51.7ZM1.505,24.164A22.659,22.659,0,1,1,24.164,46.822,22.686,22.686,0,0,1,1.505,24.164m66.233,7.284a.712.712,0,0,0-.04-.093V20.485H58.6l-1.561,4.683H52.621L47.776,29.29A24.164,24.164,0,1,0,20.931,48.1v5.1H67.7V31.851a.733.733,0,0,0,.04-.4"/></svg>