<svg id="Layer_1" data-name="Layer 1" xmlns="http://www.w3.org/2000/svg" viewBox="0 0 54.239 54.773"><defs><style>.cls-1{fill:#fff;}</style></defs><title>SVG LAS BAMBAS</title><path class="cls-1" d="M37.669,31.5a.809.809,0,1,0-1.1,1.183c.163.151.316.3.464.463a7.174,7.174,0,1,1-3.253-2.038.809.809,0,0,0,.46-1.55A8.786,8.786,0,1,0,37.66,44.474a8.788,8.788,0,0,0,.559-12.422c-.18-.192-.359-.372-.55-.55"/><path class="cls-1" d="M16.319,24.14a3.106,3.106,0,1,1,3.108-3.106,3.109,3.109,0,0,1-3.108,3.106m.951-7.732a4.723,4.723,0,1,0,3.774,4.625,4.772,4.772,0,0,0-3.774-4.625"/><path class="cls-1" d="M46.159,35.742a.79.79,0,0,1,.742.815l-.192,4.225a.775.775,0,0,1-.256.54.761.761,0,0,1-.559.2l-1.72-.077a.808.808,0,0,0-.8.536,12.19,12.19,0,0,1-1.13,2.352.81.81,0,0,0,.091.971l1.18,1.291a.782.782,0,0,1,.2.566.768.768,0,0,1-.251.54l-3.122,2.85a.783.783,0,0,1-1.1-.05l-1.228-1.345a.809.809,0,0,0-.948-.184,12.1,12.1,0,0,1-2.393.854.81.81,0,0,0-.617.749l-.084,1.832a.785.785,0,0,1-.815.746l-4.225-.193a.789.789,0,0,1-.742-.815l.081-1.832a.809.809,0,0,0-.543-.8,12.208,12.208,0,0,1-2.306-1.068.811.811,0,0,0-.963.1L23.12,49.768a.786.786,0,0,1-1.106-.05L19.166,46.6a.787.787,0,0,1,.048-1.1l1.295-1.18a.808.808,0,0,0,.178-.958,12.477,12.477,0,0,1-.912-2.445.81.81,0,0,0-.747-.606l-1.72-.078a.787.787,0,0,1-.747-.817l.193-4.221a.788.788,0,0,1,.815-.747l1.629.075A.809.809,0,0,0,20,33.961a12.32,12.32,0,0,1,1.115-2.454.809.809,0,0,0-.1-.957l-1.074-1.18a.787.787,0,0,1,.05-1.1l3.121-2.85a.787.787,0,0,1,1.1.049l1.029,1.129a.808.808,0,0,0,.96.178,12.346,12.346,0,0,1,2.6-.951.809.809,0,0,0,.615-.75l.066-1.508a.768.768,0,0,1,.073-.29,14.052,14.052,0,0,0,13.184,4.61c.056-.008.113-.018.169-.028L44.3,29.37a.785.785,0,0,1-.051,1.106L43.074,31.55a.81.81,0,0,0-.184.946,12.193,12.193,0,0,1,.889,2.548.809.809,0,0,0,.752.626ZM23.3,21.033a6.915,6.915,0,0,1-.561,2.745,2.373,2.373,0,0,0-.7.444l-3.122,2.85a2.416,2.416,0,0,0-.483.616A6.98,6.98,0,1,1,23.3,21.033M15.14,35.115l-.028.623h-.852A.753.753,0,0,1,13.516,35V33.218a.809.809,0,0,0-.575-.774,11.846,11.846,0,0,1-2.285-.957.809.809,0,0,0-.96.136L8.431,32.888a.744.744,0,0,1-1.05,0L4.464,29.974a.751.751,0,0,1,0-1.054l1.264-1.264a.806.806,0,0,0,.138-.959,12.179,12.179,0,0,1-.958-2.285.807.807,0,0,0-.773-.573H2.36a.744.744,0,0,1-.742-.743V18.973a.743.743,0,0,1,.742-.742H4.07a.808.808,0,0,0,.779-.59,11.848,11.848,0,0,1,.946-2.355.809.809,0,0,0-.142-.951L4.464,13.145a.745.745,0,0,1,0-1.049L7.381,9.178a.743.743,0,0,1,1.05,0L9.557,10.3a.809.809,0,0,0,.968.133,11.774,11.774,0,0,1,2.414-1.031.809.809,0,0,0,.576-.774V7.074a.744.744,0,0,1,.743-.743h4.124a.753.753,0,0,1,.742.743v1.49a.809.809,0,0,0,.588.777,12.065,12.065,0,0,1,2.489,1.02.806.806,0,0,0,.962-.138l1.043-1.046a.749.749,0,0,1,1.053,0l1.315,1.316a14.046,14.046,0,0,0,1.964,11.449,2.417,2.417,0,0,0-.664,1.546l-.041.92a13.87,13.87,0,0,0-1.789.655l-.626-.687a2.374,2.374,0,0,0-.94-.632,8.6,8.6,0,1,0-8.16,5.883,8.656,8.656,0,0,0,1.881-.206,2.391,2.391,0,0,0,.554,1.037l.681.747a13.679,13.679,0,0,0-.76,1.669l-1.03-.048a2.4,2.4,0,0,0-2.5,2.288m39.1-21.054a13.941,13.941,0,0,0-1.454-6.232.808.808,0,1,0-1.449.716A12.447,12.447,0,1,1,40.177,1.616a12.485,12.485,0,0,1,9.1,3.952.809.809,0,0,0,1.182-1.1A14.061,14.061,0,0,0,27.146,8.779L26.4,8.035a2.368,2.368,0,0,0-3.341,0l-.624.627a13.623,13.623,0,0,0-1.7-.7V7.074a2.362,2.362,0,0,0-2.358-2.36H14.259a2.362,2.362,0,0,0-2.36,2.36v.968a13.6,13.6,0,0,0-1.623.693l-.7-.7a2.363,2.363,0,0,0-3.337,0L3.32,10.953a2.364,2.364,0,0,0,0,3.336l.775.776a13.4,13.4,0,0,0-.623,1.549H2.36A2.362,2.362,0,0,0,0,18.973V23.1a2.362,2.362,0,0,0,2.36,2.36H3.549a13.56,13.56,0,0,0,.618,1.475l-.846.846a2.367,2.367,0,0,0,0,3.341l2.917,2.913a2.361,2.361,0,0,0,3.337,0l.846-.845a13.584,13.584,0,0,0,1.479.619V35a2.362,2.362,0,0,0,2.36,2.358h.779l-.09,1.982a2.4,2.4,0,0,0,2.288,2.506l1.137.051a14.061,14.061,0,0,0,.606,1.628l-.855.779a2.4,2.4,0,0,0-.151,3.389l2.85,3.12a2.4,2.4,0,0,0,3.388.153l.909-.832a13.891,13.891,0,0,0,1.513.7l-.055,1.241a2.4,2.4,0,0,0,2.285,2.5l4.225.193.109,0a2.4,2.4,0,0,0,2.394-2.29l.058-1.24a13.752,13.752,0,0,0,1.571-.561l.831.912a2.4,2.4,0,0,0,3.387.155l3.122-2.85a2.4,2.4,0,0,0,.152-3.391l-.777-.85a14.077,14.077,0,0,0,.752-1.569l1.133.051a2.4,2.4,0,0,0,2.505-2.285l.193-4.225a2.4,2.4,0,0,0-2.286-2.5l-1.03-.045a14.055,14.055,0,0,0-.6-1.732l.744-.681A2.4,2.4,0,0,0,45.5,28.28l-.821-.9a14.085,14.085,0,0,0,9.564-13.321"/><path class="cls-1" d="M34.1,35.824a3.2,3.2,0,1,1-4.731,4.319,3.177,3.177,0,0,1-.833-1.986c-.006-.106-.006-.211,0-.318a3.178,3.178,0,0,1,1.041-2.219h0a3.182,3.182,0,0,1,2.157-.838c.049,0,.1,0,.148,0A3.18,3.18,0,0,1,34.1,35.824m-5.392-1.588c-.014.011-.027.02-.04.032s-.033.028-.049.043c-.045.038-.09.075-.133.115-.059.053-.117.109-.174.166l-.047.049c-.04.041-.08.083-.117.125s-.09.1-.134.156l-.02.024c-.047.057-.09.114-.133.172l-.013.016c-.036.049-.07.1-.1.15l-.031.042c-.032.048-.061.1-.091.145q-.017.026-.034.055a4.729,4.729,0,0,0-.458,1.031c0,.014-.008.026-.013.04a4.8,4.8,0,0,0-.152.687v.006c0,.035-.008.07-.011.106-.016.123-.027.247-.033.372a4.822,4.822,0,0,0,8.065,3.779c.063-.056.122-.114.18-.172a4.82,4.82,0,0,0-6.457-7.137"/><path class="cls-1" d="M48.356,14.869H48.7a8.575,8.575,0,0,1-7.714,7.714v-.344a.808.808,0,0,0-1.616,0v.344a8.575,8.575,0,0,1-7.714-7.714H32a.808.808,0,1,0,0-1.616h-.343a8.576,8.576,0,0,1,7.714-7.718v.348a.808.808,0,1,0,1.616,0V5.535A8.576,8.576,0,0,1,48.7,13.253h-.343a.808.808,0,1,0,0,1.616M40.177,3.879A10.181,10.181,0,1,0,50.355,14.061,10.193,10.193,0,0,0,40.177,3.879"/><path class="cls-1" d="M40.177,9.247a.808.808,0,0,0-.808.808v4.559H37.494a.808.808,0,1,0,0,1.616h2.682a.808.808,0,0,0,.808-.808V10.055a.808.808,0,0,0-.808-.808"/></svg>