<svg id="Layer_1" data-name="Layer 1" xmlns="http://www.w3.org/2000/svg" viewBox="0 0 46.616 51.552"><defs><style>.cls-1{fill:#fff;}</style></defs><title>SVG LAS BAMBAS</title><path class="cls-1" d="M36.5,41.613a2.906,2.906,0,1,1,.186-4.105,2.9,2.9,0,0,1-.186,4.105m-1.961-6.574a4.428,4.428,0,1,0,3.271,1.444,4.421,4.421,0,0,0-3.271-1.444"/><path class="cls-1" d="M45.1,40.972a.377.377,0,0,1-.372.372H43.588a.76.76,0,0,0-.727.54,8.731,8.731,0,0,1-.739,1.732.761.761,0,0,0,.126.912l.818.816a.374.374,0,0,1,0,.527L40.942,48a.372.372,0,0,1-.266.109.365.365,0,0,1-.26-.107l-.867-.867a.762.762,0,0,0-.9-.134,8.374,8.374,0,0,1-1.684.679.761.761,0,0,0-.555.733v1.249a.376.376,0,0,1-.368.372h-3.01a.377.377,0,0,1-.372-.372v-1.3a.759.759,0,0,0-.54-.727,8.482,8.482,0,0,1-1.632-.688.761.761,0,0,0-.9.128L28.665,48a.373.373,0,0,1-.265.108A.367.367,0,0,1,28.138,48l-2.128-2.128a.374.374,0,0,1,0-.526l.782-.782h0l.14-.14a.76.76,0,0,0,.127-.9,8.453,8.453,0,0,1-.685-1.633.762.762,0,0,0-.729-.54H24.352a.376.376,0,0,1-.372-.372V37.961a.375.375,0,0,1,.372-.368H25.6a.762.762,0,0,0,.733-.556,8.5,8.5,0,0,1,.677-1.686.759.759,0,0,0-.133-.895l-.867-.868a.378.378,0,0,1,0-.525l2.128-2.129a.371.371,0,0,1,.261-.107.378.378,0,0,1,.263.106l.817.822a.761.761,0,0,0,.913.126,8.481,8.481,0,0,1,1.729-.738.762.762,0,0,0,.542-.73V29.278a.377.377,0,0,1,.372-.372h3.01a.375.375,0,0,1,.367.372v1.087a.76.76,0,0,0,.552.731,8.8,8.8,0,0,1,1.787.732.76.76,0,0,0,.9-.131l.763-.763a.37.37,0,0,1,.26-.107.375.375,0,0,1,.264.107l2.127,2.127a.374.374,0,0,1,0,.527l-.763.764a.76.76,0,0,0-.13.9,8.6,8.6,0,0,1,.727,1.785.761.761,0,0,0,.732.555h1.089a.376.376,0,0,1,.372.368ZM1.521,45.348V4.232A1.349,1.349,0,0,1,2.868,2.885h7.809V4.8H5.33A1.855,1.855,0,0,0,3.478,6.648v20.2a.761.761,0,1,0,1.522,0V6.648a.335.335,0,0,1,.33-.331h5.423A2.125,2.125,0,0,0,12.8,7.884H24.157A2.124,2.124,0,0,0,26.2,6.317h5.423a.331.331,0,0,1,.331.331V27.725a1.89,1.89,0,0,0-.815,1.554v.588a10.212,10.212,0,0,0-.98.417l-.424-.426a1.9,1.9,0,0,0-2.676,0l-2.13,2.131a1.9,1.9,0,0,0-.471,1.883H18.97a.761.761,0,1,0,0,1.522H25.3c-.1.223-.184.449-.263.676h-.69a1.892,1.892,0,0,0-1.581.854h-3.8a.761.761,0,1,0,0,1.522h3.488v2.526a1.9,1.9,0,0,0,1.894,1.894H25.1c.049.134.1.266.156.4H5.33A.335.335,0,0,1,5,42.931l.006-12.526a.761.761,0,0,0-.76-.762h0a.761.761,0,0,0-.76.76L3.478,42.931A1.854,1.854,0,0,0,5.33,44.784H24.572a1.9,1.9,0,0,0,.155,1.912H2.868a1.349,1.349,0,0,1-1.347-1.348M12.8,1.522H24.157a.6.6,0,0,1,.6.6V5.76a.61.61,0,0,1-.6.6H12.8a.61.61,0,0,1-.6-.6V2.124a.6.6,0,0,1,.6-.6M44.724,36.071h-.53a10.185,10.185,0,0,0-.423-1.034l.373-.372a1.9,1.9,0,0,0,0-2.678l-2.13-2.13a1.9,1.9,0,0,0-2.675,0l-.373.373a10.345,10.345,0,0,0-1.032-.423v-.53a1.893,1.893,0,0,0-.975-1.655l0-8.544a.761.761,0,0,0-1.522,0l0,8.306h-1.96V6.648A1.855,1.855,0,0,0,31.625,4.8H26.28V2.885h7.807a1.35,1.35,0,0,1,1.35,1.347V15.524a.76.76,0,0,0,1.521,0V4.232a2.873,2.873,0,0,0-2.871-2.869H26.137A2.125,2.125,0,0,0,24.157,0H12.8a2.125,2.125,0,0,0-1.98,1.363H2.868A2.871,2.871,0,0,0,0,4.232V45.348a2.872,2.872,0,0,0,2.868,2.87H26.2l.857.857a1.9,1.9,0,0,0,2.677,0l.531-.531c.283.134.574.257.872.365v.749a1.9,1.9,0,0,0,1.894,1.894h3.01a1.9,1.9,0,0,0,1.89-1.894v-.691c.311-.108.621-.233.924-.373l.481.481a1.9,1.9,0,0,0,2.677,0l2.128-2.129a1.9,1.9,0,0,0,0-2.678l-.424-.423a10.6,10.6,0,0,0,.417-.98h.588a1.9,1.9,0,0,0,1.892-1.894V37.961a1.894,1.894,0,0,0-1.892-1.89"/><path class="cls-1" d="M8.862,13.145A.339.339,0,0,1,9.2,12.81h3.878l-1.636,2-.692-.655A.761.761,0,1,0,9.7,15.264l1.286,1.217a.763.763,0,0,0,.524.208l.049,0a.761.761,0,0,0,.54-.277l1.878-2.3v3.481a.338.338,0,0,1-.334.334H9.2a.338.338,0,0,1-.334-.334Zm.334,6.3h4.448A1.857,1.857,0,0,0,15.5,17.593V13.145a1.846,1.846,0,0,0-.144-.718l1.4-1.712a.761.761,0,0,0-1.179-.963l-1.338,1.637a1.831,1.831,0,0,0-.593-.1H9.2A1.859,1.859,0,0,0,7.34,13.145v4.449A1.858,1.858,0,0,0,9.2,19.449"/><path class="cls-1" d="M8.735,23.295a.338.338,0,0,1,.333-.334h3.879l-1.637,2-.689-.654a.761.761,0,0,0-1.047,1.1l1.283,1.217a.764.764,0,0,0,.524.209l.048,0a.762.762,0,0,0,.541-.277l1.878-2.3v3.483a.337.337,0,0,1-.333.333H9.068a.338.338,0,0,1-.334-.333v-4.45Zm.333,6.3h4.448a1.857,1.857,0,0,0,1.855-1.855v-4.45a1.846,1.846,0,0,0-.144-.718l1.4-1.712a.761.761,0,1,0-1.178-.963L14.11,21.539a1.843,1.843,0,0,0-.594-.1H9.068a1.858,1.858,0,0,0-1.855,1.856v4.45A1.857,1.857,0,0,0,9.068,29.6"/><path class="cls-1" d="M8.735,33.8a.338.338,0,0,1,.333-.334h3.879l-1.637,2-.689-.654a.761.761,0,0,0-1.047,1.1l1.283,1.216a.759.759,0,0,0,.524.209h.048a.766.766,0,0,0,.541-.277l1.878-2.3v3.481a.338.338,0,0,1-.333.334H9.068a.339.339,0,0,1-.334-.334V33.8Zm.333,6.3h4.448a1.858,1.858,0,0,0,1.855-1.856V33.8a1.842,1.842,0,0,0-.144-.718l1.4-1.712a.761.761,0,0,0-1.178-.964L14.11,32.046a1.873,1.873,0,0,0-.594-.1H9.068A1.857,1.857,0,0,0,7.213,33.8v4.449a1.858,1.858,0,0,0,1.855,1.856"/><path class="cls-1" d="M18.766,14.613H28.983a.761.761,0,0,0,0-1.522H18.766a.761.761,0,1,0,0,1.522"/><path class="cls-1" d="M18.766,17.665H28.983a.761.761,0,0,0,0-1.522H18.766a.761.761,0,1,0,0,1.522"/><path class="cls-1" d="M28.983,23.667H19.177a.761.761,0,1,0,0,1.522h9.806a.761.761,0,0,0,0-1.522"/><path class="cls-1" d="M28.983,26.718H19.177a.761.761,0,1,0,0,1.522h9.806a.761.761,0,0,0,0-1.522"/></svg>