<svg id="Layer_1" data-name="Layer 1" xmlns="http://www.w3.org/2000/svg" viewBox="0 0 52.734 52.727"><defs><style>.cls-1{fill:none;stroke:#fff;stroke-miterlimit:10;stroke-width:0.808px;}</style></defs><title>SVG LAS BAMBAS</title><path class="cls-1" d="M51.276,41.627H38.135L34.8,32.983l.674.169a5.751,5.751,0,0,1,.788.281,6.219,6.219,0,0,0,4.764,0,5.082,5.082,0,0,1,4.006,0,6.349,6.349,0,0,0,4.764,0,4.825,4.825,0,0,1,1.055-.337l.421-.071ZM15.562,19.687a1.883,1.883,0,0,1-1.349-.575,1.751,1.751,0,0,1-.477-1.322c.505-7.308,2.319-15.376,3.667-16.261l.2-.126.183.126c1.377.9,3.162,8.812,3.667,16.261a1.755,1.755,0,0,1-.477,1.322,1.828,1.828,0,0,1-1.336.575H15.562Zm-12.269,0a1.889,1.889,0,0,1-1.363-.575,1.741,1.741,0,0,1-.464-1.322C1.972,10.341,3.756,2.428,5.12,1.529l.2-.126.2.126c1.363.9,3.148,8.812,3.655,16.261A1.745,1.745,0,0,1,8.7,19.112a1.881,1.881,0,0,1-1.349.575H3.293ZM51.81,31.972a5.579,5.579,0,0,0-2.39.478,5.215,5.215,0,0,1-4.006,0,6.181,6.181,0,0,0-4.778,0,5.18,5.18,0,0,1-3.992,0,5.51,5.51,0,0,0-2-.464l-.225-.014-.548-1.42a.552.552,0,0,0-.491-.337h-9.36l-4.231-6.76a.531.531,0,0,0-.435-.253H18.12v-2.46h1.5a2.943,2.943,0,0,0,2.122-.914,2.842,2.842,0,0,0,.76-2.108C22.027,11.03,20.285.4,17.6.4S13.159,11.03,12.7,17.72a2.776,2.776,0,0,0,.746,2.108,2.967,2.967,0,0,0,2.121.914h1.5V23.2H5.836v-2.46h1.5a3,3,0,0,0,2.136-.914,2.83,2.83,0,0,0,.744-2.108C9.744,11.03,8,.4,5.316.4S.889,11.03.412,17.72a2.771,2.771,0,0,0,.744,2.108,3,3,0,0,0,2.136.914H4.8V23.2H.931a.518.518,0,0,0-.519.519v11.84a.5.5,0,0,0,.519.468.5.5,0,0,0,.52-.468V24.255H19.062l4.23,6.761a.515.515,0,0,0,.436.253h9.29L37.277,42.33a.516.516,0,0,0,.492.337H51.276v8.6H1.451V42.822h0a.5.5,0,0,0-.519-.464.5.5,0,0,0-.519.464v8.967a.521.521,0,0,0,.519.533H51.8a.533.533,0,0,0,.534-.533v-19.3A.529.529,0,0,0,51.81,31.972Z"/></svg>