<svg id="Layer_1" data-name="Layer 1" xmlns="http://www.w3.org/2000/svg" viewBox="0 0 67.236 38.494"><defs><style>.cls-1{fill:#fff;}</style></defs><title>SVG LAS BAMBAS</title><path class="cls-1" d="M54.015,24.649a5.735,5.735,0,0,0,.586-2.5c0-5.814-9.156-10.369-20.846-10.369S12.909,16.338,12.909,22.152a5.711,5.711,0,0,0,.593,2.5,6.442,6.442,0,0,1-2.26-4.579c0-5.8,10.1-10.517,22.513-10.517a44.3,44.3,0,0,1,10.519,1.225l.125.051.1.018,0-.012c7.257,1.855,11.762,5.388,11.762,9.233a6.442,6.442,0,0,1-2.253,4.574M43.171,20.672a.587.587,0,0,0-.718.376.691.691,0,0,0,.466.893c2.971,1.364,4.541,2.967,4.541,4.64a3.359,3.359,0,0,1-.825,2.106,41.988,41.988,0,0,1-12.88,1.9,41.522,41.522,0,0,1-13.241-2.024,3.292,3.292,0,0,1-.735-1.985c0-3.437,6.338-6.339,13.841-6.339a26.569,26.569,0,0,1,5.551.557.624.624,0,0,0,.626-.182.585.585,0,0,0,.086-.577.909.909,0,0,0-.76-.539,35.123,35.123,0,0,0-5.5-.5c-8.448,0-15.065,3.332-15.065,7.585a4.165,4.165,0,0,0,.209,1.294l0,0a4.781,4.781,0,0,1-1.935-3.513c0-4.137,7.567-7.632,16.525-7.632s16.525,3.495,16.525,7.632A4.227,4.227,0,0,1,48.634,27.2a3.946,3.946,0,0,0,.049-.614c0-2.438-2.061-4.647-5.512-5.91M51.1,24.367c0-4.978-7.8-8.877-17.748-8.877S15.6,19.389,15.6,24.367a4.8,4.8,0,0,0,.242,1.494,5.332,5.332,0,0,1-1.708-3.709c0-5.03,8.8-9.123,19.622-9.123s19.623,4.092,19.623,9.123c0,1.729-1.05,3.4-3.059,4.876a5.091,5.091,0,0,0,.777-2.661m-15.066-16a99.591,99.591,0,0,1-9.214-6.747c.2-.024.4-.047.6-.069,1.818,1.092,7.8,4.658,12.6,7.177-1.3-.176-2.638-.3-3.987-.361M33.618,37.277C15.74,37.277,1.2,29.188,1.2,19.247c0-8.121,9.845-15.272,23.948-17.4.454.369,5.2,4.217,8.509,6.467-13.042.027-23.635,5.293-23.635,11.762,0,3.155,2.488,6.118,7,8.335l.121.077c1.391.852,14.141,8.09,33.306-.045l.043-.025c4.519-2.224,7.008-5.187,7.008-8.342,0-4.389-4.884-8.383-12.733-10.42C41.1,8.168,33.078,3.491,29.5,1.368c1.393-.1,2.778-.15,4.122-.15C51.5,1.217,66.04,9.306,66.04,19.247S51.5,37.277,33.618,37.277M33.618,0a58.33,58.33,0,0,0-5.906.3L27.539.2l-.076.131C11.548,2.02,0,9.972,0,19.247,0,29.86,15.08,38.494,33.618,38.494S67.236,29.86,67.236,19.247,52.155,0,33.618,0"/></svg>