<svg id="Layer_1" data-name="Layer 1" xmlns="http://www.w3.org/2000/svg" viewBox="0 0 55.699 51.919"><defs><style>.cls-1{fill:#fff;}</style></defs><title>SVG LAS BAMBAS</title><path class="cls-1" d="M55.7,25.957a2.321,2.321,0,0,0-.662-1.621V15.6a1.936,1.936,0,0,0,.662-1.466,1.914,1.914,0,0,0-1.164-1.781,1.075,1.075,0,0,0-.587-.172H36.4V4.008a2.225,2.225,0,0,0,.876-1.773A2.19,2.19,0,0,0,35.923.186,1.1,1.1,0,0,0,35.311,0H10.968a1.09,1.09,0,0,0,0,2.181l24.08,0,0,.1h0a1.087,1.087,0,0,0-.833,1.059v13.1a1.089,1.089,0,0,0,.583.965.536.536,0,0,1,0,.955,1.09,1.09,0,0,0-.583.966V32.586a1.087,1.087,0,0,0,.584.965.537.537,0,0,1,0,.955,1.088,1.088,0,0,0-.584.966v13.1a1.087,1.087,0,0,0,.834,1.06l.064-.264-.053.364-32.83.005a.056.056,0,0,1-.054-.054.055.055,0,0,1,.056-.055,1.091,1.091,0,0,0,1.09-1.089V35.585a1.083,1.083,0,0,0-.767-1.041.539.539,0,0,1,0-1.03,1.085,1.085,0,0,0,.767-1.042V19.445A1.084,1.084,0,0,0,2.56,18.4a.539.539,0,0,1,0-1.03,1.083,1.083,0,0,0,.767-1.041V3.379a1.093,1.093,0,0,0-1.092-1.09.054.054,0,1,1,0-.108H6.687A1.09,1.09,0,0,0,6.687,0H2.235A2.234,2.234,0,0,0,1.146,4.185V15.669a2.724,2.724,0,0,0,0,4.441v11.7a2.723,2.723,0,0,0,0,4.44V47.733a2.234,2.234,0,0,0,1.09,4.186H46.165a1.09,1.09,0,1,0,0-2.181H37.275c0-.017,0-.037,0-.054a2.224,2.224,0,0,0-.876-1.773V39.4H50.353a1.09,1.09,0,1,0,0-2.18H36.4V36.027a2.716,2.716,0,0,0,0-3.995V26.881H50.383a1.09,1.09,0,0,0,0-2.18H36.4V19.888a2.717,2.717,0,0,0,0-4V14.363l16.647,0a1.1,1.1,0,0,0-.189.615v9.892a1.088,1.088,0,0,0,.583.965.141.141,0,0,1,.078.125.137.137,0,0,1-.074.122,1.088,1.088,0,0,0-.586.966V37.054a1.085,1.085,0,0,0,.585.966.139.139,0,0,1,.055.051.128.128,0,0,1,.02.072.141.141,0,0,1-.076.125,1.087,1.087,0,0,0-.584.965v9.893a1.1,1.1,0,0,0,.187.612H50.383a1.09,1.09,0,1,0,0,2.181h3.565a1,1,0,0,0,.544-.15,1.941,1.941,0,0,0,1.207-1.8,1.964,1.964,0,0,0-.427-1.217,1.8,1.8,0,0,0-.235-.246V39.766a2.319,2.319,0,0,0,.315-2.842,2.281,2.281,0,0,0-.315-.4V27.579a2.323,2.323,0,0,0,.662-1.623"/><path class="cls-1" d="M31.127,33.141H7.278a1.09,1.09,0,0,0,0,2.181H31.127c.6,0,.993-.816,1.066-.979l.024-.111a1.091,1.091,0,0,0-1.089-1.09"/><path class="cls-1" d="M31.127,16.6H7.278a1.09,1.09,0,0,0,0,2.181H31.127c.6,0,.993-.816,1.066-.979l.024-.111a1.091,1.091,0,0,0-1.089-1.09"/></svg>