<svg id="Layer_1" data-name="Layer 1" xmlns="http://www.w3.org/2000/svg" viewBox="0 0 56.332 56.221"><defs><style>.cls-1{fill:#fff;}</style></defs><title>SVG LAS BAMBAS</title><path class="cls-1" d="M47.276,54.555a7.389,7.389,0,1,1,7.389-7.389,7.4,7.4,0,0,1-7.389,7.389m-14.721,0V52.222h7.212a9.139,9.139,0,0,0,2.283,2.333Zm-14-2.333H30.888v2.333H18.555Zm-14.111,0H16.888v2.333H4.444Zm14.111-8H30.888v2.333H18.555Zm14-8H44.888v2.211q-.206.056-.41.123H32.555Zm6.932,6.333H32.555V40.221h8.917a9.158,9.158,0,0,0-1.985,2.333m-1.244,4H32.555V44.222h6.16a8.99,8.99,0,0,0-.471,2.333m-5.689,1.666h5.73a8.955,8.955,0,0,0,.6,2.333H32.555Zm-14,0H30.888v2.333H18.555ZM35.9,22.944l2.766-2.765,2.765,2.765h-.8a.834.834,0,0,0-.834.834v6.333H37.531V23.778a.833.833,0,0,0-.833-.834Zm-13.567-.61H1.682a21.53,21.53,0,0,1,20.65-20.65ZM47.276,38.111c-.243,0-.483.013-.722.032V35.389a.834.834,0,0,0-.833-.834H36.158a17.263,17.263,0,0,0,1.989-2.777h2.486a.834.834,0,0,0,.833-.834V24.611h1.979A.833.833,0,0,0,44,23.153l-4.031-4.031A17.28,17.28,0,0,0,24,5.91V.834A.833.833,0,0,0,23.166,0,23.192,23.192,0,0,0,0,23.167.833.833,0,0,0,.833,24H5.908a17.172,17.172,0,0,0,1.147,5.42.834.834,0,0,0,.777.532.825.825,0,0,0,.3-.057.834.834,0,0,0,.476-1.078A15.509,15.509,0,0,1,7.576,24H23.166A.833.833,0,0,0,24,23.167V7.579A15.741,15.741,0,0,1,38.047,18.441L33.3,23.189a.833.833,0,0,0,.589,1.422h1.978v6.333a.83.83,0,0,0,.4.713,15.636,15.636,0,0,1-2.431,2.9H31.721a.834.834,0,0,0-.833.833v1.348a15.617,15.617,0,0,1-20.515-4.62.833.833,0,1,0-1.365.957,17.282,17.282,0,0,0,21.88,5.55v3.932H17.722a.834.834,0,0,0-.834.834v3.166H9.437a.833.833,0,1,0,0,1.666h7.45v2.333H4.444V48.221h1.11a.833.833,0,1,0,0-1.666H3.611a.833.833,0,0,0-.833.833v8a.832.832,0,0,0,.833.833h42.11a.819.819,0,0,0,.358-.082,9.054,9.054,0,1,0,1.2-18.029"/><path class="cls-1" d="M47.276,43.444a1.391,1.391,0,0,1,1.39,1.39.833.833,0,1,0,1.666,0,3.061,3.061,0,0,0-2.223-2.94V41.5a.833.833,0,1,0-1.666,0v.393a3.061,3.061,0,0,0-2.223,2.94v.111a2.837,2.837,0,0,0,2.834,2.833H47.5a1.169,1.169,0,0,1,1.168,1.167v.223a1.389,1.389,0,0,1-2.778,0,.834.834,0,1,0-1.667,0,3.061,3.061,0,0,0,2.223,2.939V52.5a.833.833,0,1,0,1.666,0v-.394a3.061,3.061,0,0,0,2.223-2.939v-.223A2.836,2.836,0,0,0,47.5,46.111h-.443a1.168,1.168,0,0,1-1.167-1.167v-.111a1.39,1.39,0,0,1,1.388-1.39"/></svg>