<svg id="Layer_1" data-name="Layer 1" xmlns="http://www.w3.org/2000/svg" viewBox="0 0 168.343 59.659"><defs><style>.cls-1{fill:#d0023c;}.cls-2{fill:#e8412b;}.cls-3{fill:#002c77;}.cls-4{fill:#aea400;}.cls-5{fill:none;stroke:#5f6162;stroke-miterlimit:10;stroke-width:0.839px;}</style></defs><title>SVG LAS BAMBAS</title><path class="cls-1" d="M53.7,54.1a19.434,19.434,0,0,1-5.6.713c-4.5,0-8.1-2.287-8.1-6.966,0-4.386,3.744-6.585,8.1-6.585a20.223,20.223,0,0,1,5.057.483v3.531a8.025,8.025,0,0,0-3.568-.745c-2.578,0-4.288,1.254-4.288,3.638,0,1.805.762,3.378,2.831,3.378a3.675,3.675,0,0,0,1.11-.107V46.806H53.7Z"/><polygon class="cls-1" points="20.49 41.485 28.167 41.485 29.937 48.661 29.976 48.661 31.711 41.485 39.377 41.485 39.377 54.593 34.717 54.593 34.643 44.309 34.604 44.309 31.946 54.593 27.623 54.593 25.048 44.309 24.971 44.309 24.908 54.593 20.49 54.593 20.49 41.485"/><polygon class="cls-1" points="0.088 41.485 7.772 41.485 9.536 48.661 9.57 48.661 11.309 41.485 18.976 41.485 18.976 54.593 14.312 54.593 14.238 44.309 14.196 44.309 11.544 54.593 7.214 54.593 4.643 44.309 4.573 44.309 4.513 54.593 0.088 54.593 0.088 41.485"/><polyline class="cls-1" points="36.747 34.88 35.391 39.656 33.294 39.656 35.886 29.906 35.226 26.094 31.401 39.656 18.302 39.656 16.914 34.862 16.078 39.656 13.964 39.656 15.509 29.828 14.487 26.094 12.11 39.656 0 39.656 5.163 10.292 19.977 10.292 24.88 29.929 25.81 26.232 22.323 12.364 24.553 12.364 26.924 21.802 29.842 10.3 44.533 10.3 49.706 39.656 37.593 39.656"/><polygon class="cls-1" points="53.847 39.656 51.487 39.656 46.802 12.366 49.035 12.366 53.847 39.656"/><polygon class="cls-1" points="87.053 44.964 84.869 44.964 84.869 54.651 90.938 54.651 90.938 52.977 87.053 52.977 87.053 44.964"/><path class="cls-1" d="M98.015,50.795H95.353l1.327-3.617Zm-.105-5.83H95.528l-3.962,9.686h2.269l.878-2.175h3.923l.86,2.175h2.413l-3.975-9.636Z"/><path class="cls-1" d="M106.11,48.923c-.86-.311-1.594-.589-1.594-1.216,0-1.145,1.131-1.231,1.485-1.231a5.361,5.361,0,0,1,1.995.4l.1.048.214-1.762-.071-.024a8.12,8.12,0,0,0-2.423-.345c-2.241,0-3.579,1.123-3.579,3,0,1.854,1.493,2.411,2.694,2.866.906.333,1.686.626,1.686,1.349,0,.829-1.032,1.132-1.686,1.132a4.943,4.943,0,0,1-2.223-.57l-.109-.06-.214,1.929.291.059a8.416,8.416,0,0,0,2.371.321c2.441,0,3.842-1.081,3.842-2.961,0-1.917-1.542-2.484-2.782-2.932"/><path class="cls-1" d="M115.094,50.4h.857c.924,0,1.977.157,1.977,1.341,0,.818-.667,1.237-1.977,1.237h-.857Zm.73-1.6h-.73V46.639h.685c.934,0,1.843.085,1.843,1.1,0,.709-.6,1.066-1.8,1.066m2.311.815a2.181,2.181,0,0,0,1.675-2.129c0-2.2-2.079-2.522-3.308-2.522h-3.586v9.686H116.5c1.078,0,3.607-.272,3.607-2.84a2.254,2.254,0,0,0-1.974-2.194"/><path class="cls-1" d="M126.6,50.795h-2.669l1.338-3.617Zm-.1-5.83h-2.381l-3.965,9.686h2.265l.878-2.175h3.927l.86,2.175h2.41l-3.969-9.636Z"/><polygon class="cls-1" points="136.823 52.019 134.494 44.965 131.137 44.965 131.137 54.651 133.234 54.651 133.234 47.167 135.78 54.598 135.798 54.651 137.841 54.651 140.416 47.167 140.416 54.651 142.509 54.651 142.509 44.965 139.145 44.965 136.823 52.019"/><path class="cls-1" d="M145.961,50.4h.85c.923,0,1.974.157,1.974,1.341,0,.818-.66,1.237-1.974,1.237h-.85Zm.724-1.6h-.724V46.639h.685c.927,0,1.84.085,1.84,1.1,0,.709-.607,1.066-1.8,1.066m2.318.815a2.174,2.174,0,0,0,1.668-2.129c0-2.2-2.076-2.522-3.312-2.522h-3.582v9.686h3.582c1.082,0,3.611-.272,3.611-2.84A2.257,2.257,0,0,0,149,49.616"/><path class="cls-1" d="M157.463,50.795h-2.655l1.328-3.617Zm-.1-5.83h-2.367l-3.975,9.686h2.272l.871-2.175h3.93l.861,2.175h2.413l-3.972-9.636Z"/><path class="cls-1" d="M165.562,48.923c-.868-.311-1.6-.589-1.6-1.216,0-1.145,1.135-1.231,1.478-1.231a5.319,5.319,0,0,1,2.006.4l.109.048.207-1.762-.07-.024a8.081,8.081,0,0,0-2.42-.345c-2.24,0-3.578,1.123-3.578,3,0,1.854,1.493,2.411,2.69,2.866.906.333,1.689.626,1.689,1.349,0,.829-1.043,1.132-1.689,1.132a4.928,4.928,0,0,1-2.22-.57l-.116-.06-.211,1.929.292.06a8.456,8.456,0,0,0,2.367.321c2.445,0,3.846-1.081,3.846-2.961,0-1.917-1.545-2.484-2.781-2.932"/><path class="cls-1" d="M115.961,4.843c-8.078,0-13.448,14.33-15.541,27.8l-.169,1.083s1.756.009,3.449,0l.095-.372c2.648-9.713,6.258-17.641,12.647-18.335,6.771-.738,11.85,10.7,13.613,16.388,1.236,0,2.293-1,2.293-1.681-2.3-9.25-6.8-24.73-16.387-24.887"/><path class="cls-2" d="M102.805,17.24c.042-.09.516-1.3.724-1.793a30.174,30.174,0,0,1,1.514-3.219c.351-.66.709-1.285,1.075-1.882a5.912,5.912,0,0,0-1.816-.216c-6.22,0-10.638,12.482-12.369,23.6h3.344c1.6-5.881,4.832-14.234,7.53-16.491"/><path class="cls-3" d="M134.428,27.691c30.323,16.851-51.8,13.715-36.041,6.1-7.488,6.388,45.183,6.155,36.041-6.1"/><path class="cls-4" d="M93.712,20.5a34.153,34.153,0,0,1,1.731-4.1c.263-.534.534-1.039.808-1.514a4.9,4.9,0,0,0-1.4-.156c-5.012,0-8.569,10.044-9.96,19h2.691C88.862,29,91.542,22.315,93.712,20.5"/><line class="cls-5" x1="69.423" x2="69.423" y2="59.659"/></svg>