<svg id="Layer_1" data-name="Layer 1" xmlns="http://www.w3.org/2000/svg" viewBox="0 0 44.19 53.185"><defs><style>.cls-1,.cls-2{fill:#99082b;}.cls-1{opacity:0.4;}</style></defs><title>SVG LAS BAMBAS</title><path class="cls-1" d="M30.7,51.252A11.558,11.558,0,1,1,42.256,39.694,11.572,11.572,0,0,1,30.7,51.252Z"/><path class="cls-2" d="M34.873,40l-3.21,3.21V33.84a.967.967,0,0,0-1.933,0v9.371L26.521,40a.966.966,0,1,0-1.367,1.367l4.853,4.853a.967.967,0,0,0,.324.218l.011,0a.98.98,0,0,0,.354.069h0a1.007,1.007,0,0,0,.349-.068l.019-.006a.971.971,0,0,0,.309-.2l.006,0,4.859-4.859A.967.967,0,1,0,34.873,40ZM30.7,51.252A11.558,11.558,0,1,1,42.256,39.694,11.572,11.572,0,0,1,30.7,51.252Zm3.35-24.614V10.123a.965.965,0,0,0-.284-.683L24.692.284A.977.977,0,0,0,24.009,0H.967A.967.967,0,0,0,0,.967V9.092a.967.967,0,0,0,.967.967h0a.967.967,0,0,0,.967-.967V1.933h21.1v8.19a.969.969,0,0,0,.967.967h8.112V26.277c-.464-.045-.941-.077-1.418-.077A13.513,13.513,0,0,0,17.2,39.692a13.372,13.372,0,0,0,.831,4.614H1.933V16.927a.967.967,0,0,0-.967-.967h0A.967.967,0,0,0,0,16.927V45.273a.969.969,0,0,0,.967.967H18.912a13.485,13.485,0,1,0,15.136-19.6Z"/><rect class="cls-2" x="4.843" y="11.985" width="14.297" height="1.933" rx="0.967" ry="0.967"/><rect class="cls-2" x="4.843" y="18.058" width="14.297" height="1.933" rx="0.967" ry="0.967"/><rect class="cls-2" x="4.843" y="24.132" width="9.32" height="1.933" rx="0.967" ry="0.967"/></svg>