<svg id="Layer_1" data-name="Layer 1" xmlns="http://www.w3.org/2000/svg" viewBox="0 0 44.863 53.995"><defs><style>.cls-1{fill:#fff;}</style></defs><title>SVG LAS BAMBAS</title><path class="cls-1" d="M35.4,40.613l-3.259,3.259V34.355a.981.981,0,0,0-1.962,0v9.514l-3.258-3.258A.981.981,0,0,0,25.537,42l4.927,4.927a.982.982,0,0,0,.329.221l.011,0a1,1,0,0,0,.36.07h0a1.023,1.023,0,0,0,.354-.069l.02-.007a.986.986,0,0,0,.313-.208l.007,0L36.793,42A.982.982,0,1,0,35.4,40.613Zm-4.239,11.42A11.734,11.734,0,1,1,42.9,40.3,11.748,11.748,0,0,1,31.165,52.032Zm3.4-24.989V10.277a.98.98,0,0,0-.288-.693L25.068.288A.992.992,0,0,0,24.374,0H.981A.981.981,0,0,0,0,.981V9.23a.981.981,0,0,0,.981.981h0a.981.981,0,0,0,.981-.981V1.962H23.386v8.314a.984.984,0,0,0,.981.981H32.6V26.677c-.471-.046-.955-.078-1.439-.078a13.719,13.719,0,0,0-13.7,13.7,13.576,13.576,0,0,0,.844,4.684H1.962v-27.8A.981.981,0,0,0,.981,16.2h0A.981.981,0,0,0,0,17.185V45.962a.984.984,0,0,0,.981.981H19.2a13.69,13.69,0,1,0,15.366-19.9Z"/><rect class="cls-1" x="4.916" y="12.167" width="14.514" height="1.962" rx="0.981" ry="0.981"/><rect class="cls-1" x="4.916" y="18.333" width="14.514" height="1.962" rx="0.981" ry="0.981"/><rect class="cls-1" x="4.916" y="24.499" width="9.461" height="1.962" rx="0.981" ry="0.981"/></svg>